Coordinates
version=1
nRows=8
nColumns=40
inDegrees=yes

Units are S.I. units (second, meters, Newtons, ...)
If the header above contains a line with 'inDegrees', this indicates whether rotational values are in degrees (yes) or radians (no).

endheader
time	pelvis_tilt	pelvis_list	pelvis_rotation	pelvis_tx	pelvis_ty	pelvis_tz	hip_flexion_r	hip_adduction_r	hip_rotation_r	knee_angle_r	knee_angle_r_beta	ankle_angle_r	subtalar_angle_r	mtp_angle_r	hip_flexion_l	hip_adduction_l	hip_rotation_l	knee_angle_l	knee_angle_l_beta	ankle_angle_l	subtalar_angle_l	mtp_angle_l	lumbar_extension	lumbar_bending	lumbar_rotation	arm_flex_r	arm_add_r	arm_rot_r	elbow_flex_r	pro_sup_r	wrist_flex_r	wrist_dev_r	arm_flex_l	arm_add_l	arm_rot_l	elbow_flex_l	pro_sup_l	wrist_flex_l	wrist_dev_l
     11.73333333	    -18.32547640	     -4.63171453	      6.95578510	     -0.24691374	      1.05237151	      0.01457131	     98.77118330	    -13.69876840	      4.49284939	    119.86107154	      2.09197034	     -0.44118724	    -13.21131232	      0.00000000	     53.66456671	     -5.38613195	      5.25783297	     40.86282757	      0.71319088	    -19.14488743	    -12.86703231	      0.00000000	    -43.16457865	      7.75644464	      2.08209171	     89.67567575	    -15.68658048	     36.12621648	     28.21278786	     89.24162419	      0.00000000	      0.00000000	     89.87590926	     -0.97275094	     14.14046609	     21.67971468	     89.42059133	      0.00000000	      0.00000000
     11.74166667	    -18.20334077	     -4.63247273	      7.05448186	     -0.24696805	      1.05306185	      0.01426212	     99.61946585	    -13.67962839	      4.60540012	    119.30212113	      2.08221482	     -0.41063821	    -13.27893805	      0.00000000	     53.13903348	     -5.43361845	      5.25939648	     41.53430042	      0.72491029	    -19.26860725	    -12.88489396	      0.00000000	    -43.34297924	      7.91690546	      2.02579931	     89.69533345	    -15.61604547	     36.05244198	     28.31491919	     89.24934583	      0.00000000	      0.00000000	     89.87487261	     -1.02930687	     14.09221228	     21.70296743	     89.41872541	      0.00000000	      0.00000000
     11.75000000	    -18.13284673	     -4.58751063	      7.15028461	     -0.24724827	      1.05375335	      0.01404386	    100.36409182	    -13.56379896	      4.76838212	    118.55258515	      2.06913295	     -0.34318101	    -13.35175923	      0.00000000	     52.82838217	     -5.45026681	      5.21040593	     42.45924764	      0.74105367	    -19.36467962	    -12.94152948	      0.00000000	    -43.48594234	      8.01244838	      1.96046901	     89.71038276	    -15.59762776	     35.92283375	     28.43094927	     89.24435366	      0.00000000	      0.00000000	     89.87791550	     -1.06511912	     14.05358410	     21.79404624	     89.41589853	      0.00000000	      0.00000000
     11.75833333	    -18.83436758	     -4.68573878	      7.01076301	     -0.24839451	      1.05279282	      0.01415876	    102.06716592	    -13.34555578	      4.71514955	    117.59347102	      2.05239325	     -1.04981751	    -13.70974352	      0.00000000	     53.72486228	     -5.54052449	      5.28372675	     44.00630878	      0.76805498	    -19.45123481	    -13.91657023	      0.00000000	    -42.77223056	      8.03449923	      2.05130787	     89.69333481	    -15.45744164	     35.15758241	     28.37979322	     89.23935931	      0.00000000	      0.00000000	     89.87425605	     -1.04158452	     13.78342384	     21.78173865	     89.41736413	      0.00000000	      0.00000000
     11.76666667	    -18.79795404	     -4.56680381	      7.00179121	     -0.24882747	      1.05311102	      0.01407168	    102.57627004	    -13.12104471	      4.84106212	    116.42140176	      2.03193678	     -0.99024818	    -13.90902066	      0.00000000	     53.89688750	     -5.56644973	      5.15442919	     45.69066069	      0.79745247	    -19.44616246	    -14.13833910	      0.00000000	    -42.86760681	      7.97771318	      1.99631848	     89.71269721	    -15.41898480	     34.94955926	     28.50566579	     89.23833864	      0.00000000	      0.00000000	     89.87477000	     -1.08678035	     13.73542305	     21.95891125	     89.41746751	      0.00000000	      0.00000000
     11.77500000	    -18.74386820	     -4.44219491	      6.95934757	     -0.24916747	      1.05337923	      0.01390683	    102.85126163	    -12.93113936	      4.91781251	    115.13609292	      2.00950391	     -1.15129711	    -13.95308790	      0.00000000	     54.19527573	     -5.59595129	      5.02795835	     47.61027307	      0.83095602	    -19.42101472	    -14.40046295	      0.00000000	    -42.97476381	      7.90386107	      1.96454181	     89.72295819	    -15.38236417	     34.70146070	     28.63201942	     89.24200193	      0.00000000	      0.00000000	     89.87619774	     -1.11601887	     13.69320322	     22.06581670	     89.42263642	      0.00000000	      0.00000000
     11.78333333	    -19.22357622	     -4.98553451	      6.59505213	     -0.25024708	      1.05297403	      0.01454748	    103.33681349	    -12.37424459	      4.15609209	    113.43680560	      1.97984575	     -1.90579647	    -14.94830140	      0.00000000	     55.42079144	     -6.26199964	      5.31218852	     49.86722778	      0.87034731	    -19.12413055	    -15.06448133	      0.00000000	    -42.53676315	      8.12101646	      2.57843205	     89.72716026	    -15.32586604	     34.04036044	     28.62281891	     89.23643598	      0.00000000	      0.00000000	     89.87764900	     -1.03145726	     13.47197128	     22.05069615	     89.41827355	      0.00000000	      0.00000000
     11.79166667	    -19.05279262	     -4.80918347	      6.58974016	     -0.25046440	      1.05319950	      0.01422245	    103.06394810	    -12.30790994	      4.19806171	    111.66322632	      1.94889095	     -2.36709310	    -14.66879947	      0.00000000	     55.76654146	     -6.15343044	      5.32287489	     52.11339156	      0.90955027	    -18.67890616	    -15.57247522	      0.00000000	    -42.73914464	      8.00719373	      2.48849323	     89.73848591	    -15.30751700	     33.83810016	     28.67946757	     89.23539022	      0.00000000	      0.00000000	     89.87874706	     -1.02275194	     13.44620748	     22.14697628	     89.41851649	      0.00000000	      0.00000000
